<?xml version="1.0" encoding="utf-8"?>
<!-- Generator: Adobe Illustrator 16.0.0, SVG Export Plug-In . SVG Version: 6.00 Build 0)  -->
<!DOCTYPE svg PUBLIC "-//W3C//DTD SVG 1.1//EN" "http://www.w3.org/Graphics/SVG/1.1/DTD/svg11.dtd">
<svg version="1.1" id="Layer_1" xmlns="http://www.w3.org/2000/svg" xmlns:xlink="http://www.w3.org/1999/xlink" x="0px" y="0px"
	 width="1928px" height="848px" viewBox="0 0 1928 848" enable-background="new 0 0 1928 848" xml:space="preserve">
<g id="iD_Tech">
	<circle fill="#FFFFFF" cx="426.169" cy="424" r="423.277"/>
	<g>
		<g>
			<path fill="#94D500" d="M423.127,99.01c-178.716,0-323.585,144.851-323.585,323.56c0,178.729,144.869,323.585,323.585,323.585
				c178.702,0,323.585-144.854,323.585-323.585C746.712,243.86,601.829,99.01,423.127,99.01z M423.127,711.286
				c-159.208,0-288.729-129.521-288.729-288.718c0-159.187,129.521-288.717,288.729-288.717
				c159.155,0,288.702,129.531,288.702,288.717C711.829,581.765,582.282,711.286,423.127,711.286z"/>
			<g>
				<path fill="#94D500" d="M423.127,157.969c-145.936,0-264.625,118.699-264.625,264.601c0,145.92,118.691,264.624,264.625,264.624
					c145.893,0,264.626-118.704,264.626-264.624C687.753,276.668,569.019,157.969,423.127,157.969z M347.994,468.533v117.813
					h-30.708c-1.169-0.171-2.352-0.252-3.55-0.252c-18.907,0-34.245-15.348-34.245-34.285v-43.901V353.89
					c9.677,1.144,37.236,4.8,68.503,12.112V468.533z M347.994,317.847c0,0.034,0,0.063,0,0.113v21.012
					c-24.793-1.923-48.688-3.088-68.503-3.786V317.96v-49.882h68.503V317.847z M469.01,585.697l-82.717,0.041V376.595
					c30.124,9.834,58.469,23.358,73.113,41.536v98.853l9.671-0.051c49.527-0.229,89.831-40.759,89.831-90.31
					c0-49.547-40.304-90.028-89.831-90.272l-9.671-0.048v0.067v18.603c-20.982-5.425-46.644-9.434-73.113-12.392v-6.211v-27.378
					v-41.254h82.308l5.076-0.098c85.401,2.665,153.982,72.98,153.982,158.982C627.659,514.154,556.501,585.498,469.01,585.697z"/>
			</g>
		</g>
	</g>
	<g>
		<path fill="#404041" d="M864.712,316.837c0-6.231,2.261-11.606,6.765-16.114c4.505-4.502,9.875-6.756,16.105-6.756
			c6.244,0,11.627,2.254,16.118,6.756c4.518,4.508,6.75,9.882,6.75,16.114c0,6.246-2.232,11.615-6.75,16.131
			c-4.491,4.496-9.874,6.751-16.118,6.751c-6.231,0-11.602-2.255-16.105-6.751C866.973,328.452,864.712,323.083,864.712,316.837z
			 M871.995,375.763h31.188v164.3h-31.188V375.763z"/>
		<path fill="#404041" d="M955.181,294.656h85.589c17.328,0,32.532,1.975,45.593,5.897c13.036,3.933,24.371,9.186,33.968,15.768
			c9.566,6.583,17.552,14.159,23.903,22.713c6.354,8.544,11.39,17.319,15.07,26.333c3.706,9.013,6.364,18.025,7.985,27.036
			c1.605,9.009,2.418,17.326,2.418,24.96c0,15.706-2.896,30.905-8.651,45.574c-5.793,14.673-14.338,27.721-25.658,39.164
			c-11.32,11.439-25.368,20.624-42.099,27.56c-16.771,6.937-36.118,10.401-58.056,10.401h-80.063V294.656z M988.44,508.865h41.951
			c14.072,0,27.427-1.914,40.024-5.727c12.57-3.816,23.614-9.531,33.101-17.159c9.475-7.612,16.984-17.153,22.523-28.583
			c5.541-11.439,8.319-24.78,8.319-40.034c0-7.854-1.274-17.045-3.813-27.563c-2.538-10.513-7.351-20.5-14.393-29.979
			c-7.028-9.476-16.798-17.499-29.287-24.087c-12.466-6.59-28.648-9.883-48.504-9.883h-49.924L988.44,508.865L988.44,508.865z"/>
		<path fill="#404041" d="M1305.288,325.853h-79.024v-31.195h191.313v31.195h-79.015v214.21h-33.274L1305.288,325.853
			L1305.288,325.853z"/>
		<path fill="#404041" d="M1430.064,469.342c0,7.172,1.558,13.695,4.681,19.59c3.108,5.892,7.217,10.922,12.293,15.069
			c5.088,4.159,10.974,7.399,17.686,9.712c6.695,2.301,13.634,3.469,20.796,3.469c9.7,0,18.14-2.244,25.301-6.762
			c7.162-4.508,13.741-10.445,19.761-17.854l23.586,18.024c-17.34,22.417-41.603,33.631-72.817,33.631
			c-12.942,0-24.64-2.205-35.164-6.59c-10.522-4.371-19.411-10.469-26.681-18.205c-7.283-7.729-12.891-16.862-16.824-27.387
			c-3.919-10.512-5.886-21.871-5.886-34.131c0-12.237,2.126-23.62,6.405-34.145c4.277-10.512,10.164-19.63,17.672-27.378
			c7.51-7.742,16.479-13.807,26.869-18.197c10.404-4.384,21.729-6.589,33.968-6.589c14.562,0,26.866,2.553,36.927,7.625
			c10.03,5.082,18.298,11.73,24.781,19.937c6.461,8.203,11.125,17.438,14.008,27.724c2.909,10.287,4.343,20.744,4.343,31.366v11.089
			L1430.064,469.342L1430.064,469.342z M1528.505,444.396c-0.252-6.93-1.34-13.295-3.295-19.061
			c-1.965-5.782-4.93-10.805-8.836-15.083c-3.947-4.274-8.837-7.62-14.738-10.055c-5.887-2.421-12.771-3.639-20.637-3.639
			c-7.611,0-14.603,1.447-20.967,4.331c-6.354,2.896-11.722,6.647-16.121,11.271c-4.369,4.621-7.799,9.758-10.202,15.423
			c-2.435,5.67-3.646,11.263-3.646,16.813H1528.505L1528.505,444.396z"/>
		<path fill="#404041" d="M1716.709,419.434c-5.792-6.006-11.867-10.563-18.19-13.689c-6.363-3.11-13.952-4.674-22.71-4.674
			c-8.557,0-16.026,1.563-22.365,4.674c-6.35,3.127-11.681,7.397-15.934,12.834c-4.278,5.427-7.519,11.66-9.712,18.718
			c-2.219,7.04-3.295,14.377-3.295,21.99c0,7.641,1.274,14.854,3.812,21.666c2.538,6.823,6.114,12.776,10.766,17.859
			c4.598,5.082,10.139,9.082,16.624,11.967c6.461,2.883,13.74,4.317,21.831,4.317c8.771,0,16.278-1.555,22.538-4.676
			c6.23-3.124,11.998-7.676,17.327-13.688l22.18,22.179c-8.108,9.01-17.516,15.479-28.236,19.416
			c-10.765,3.903-22.141,5.896-34.15,5.896c-12.72,0-24.332-2.097-34.845-6.244c-10.512-4.159-19.589-9.993-27.215-17.514
			c-7.614-7.51-13.499-16.516-17.659-27.029c-4.174-10.512-6.248-22.116-6.248-34.827c0-12.713,2.074-24.38,6.248-35.017
			c4.16-10.623,9.993-19.75,17.5-27.376c7.496-7.625,16.502-13.575,27.044-17.854c10.495-4.27,22.217-6.405,35.175-6.405
			c12.011,0,23.49,2.137,34.48,6.405c10.963,4.278,20.492,10.812,28.597,19.589L1716.709,419.434z"/>
		<path fill="#404041" d="M1766.247,278.021h31.204V401.07h0.701c3.92-8.78,10.738-15.888,20.451-21.317
			c9.688-5.429,20.918-8.149,33.62-8.149c7.84,0,15.414,1.221,22.709,3.642c7.256,2.428,13.634,6.19,19.056,11.261
			c5.421,5.094,9.768,11.611,12.983,19.592c3.24,7.971,4.865,17.39,4.865,28.246v105.722h-31.204v-97.057
			c0-7.626-1.035-14.152-3.106-19.587c-2.073-5.42-4.854-9.813-8.318-13.167c-3.481-3.348-7.454-5.772-11.959-7.277
			c-4.506-1.497-9.199-2.258-14.034-2.258c-6.486,0-12.491,1.043-18.031,3.124c-5.529,2.078-10.405,5.371-14.554,9.879
			c-4.172,4.504-7.399,10.22-9.711,17.154c-2.313,6.938-3.467,15.141-3.467,24.611v84.576h-31.204L1766.247,278.021
			L1766.247,278.021z"/>
	</g>
</g>
</svg>
